<?xml version="1.0" encoding="UTF-8" standalone="no"?>
<!-- Generator: Adobe Illustrator 16.0.0, SVG Export Plug-In . SVG Version: 6.00 Build 0)  -->

<svg
   xmlns:dc="http://purl.org/dc/elements/1.1/"
   xmlns:cc="http://creativecommons.org/ns#"
   xmlns:rdf="http://www.w3.org/1999/02/22-rdf-syntax-ns#"
   xmlns:svg="http://www.w3.org/2000/svg"
   xmlns="http://www.w3.org/2000/svg"
   xmlns:sodipodi="http://sodipodi.sourceforge.net/DTD/sodipodi-0.dtd"
   xmlns:inkscape="http://www.inkscape.org/namespaces/inkscape"
   version="1.1"
   id="Capa_1"
   x="0px"
   y="0px"
   width="494px"
   height="80px"
   viewBox="0 0 494 80"
   enable-background="new 0 0 494 80"
   xml:space="preserve"
   sodipodi:docname="prueba.svg"
   inkscape:version="0.92.4 (5da689c313, 2019-01-14)"><metadata
   id="metadata3777"><rdf:RDF><cc:Work
       rdf:about=""><dc:format>image/svg+xml</dc:format><dc:type
         rdf:resource="http://purl.org/dc/dcmitype/StillImage" /><dc:title></dc:title></cc:Work></rdf:RDF></metadata><defs
   id="defs3775" /><sodipodi:namedview
   pagecolor="#ffffff"
   bordercolor="#666666"
   borderopacity="1"
   objecttolerance="10"
   gridtolerance="10"
   guidetolerance="10"
   inkscape:pageopacity="0"
   inkscape:pageshadow="2"
   inkscape:window-width="1366"
   inkscape:window-height="705"
   id="namedview3773"
   showgrid="true"
   inkscape:snap-others="false"
   inkscape:snap-smooth-nodes="true"
   showguides="false"
   inkscape:zoom="4.91"
   inkscape:cx="360.05703"
   inkscape:cy="46.854545"
   inkscape:window-x="-8"
   inkscape:window-y="-8"
   inkscape:window-maximized="1"
   inkscape:current-layer="g3768"><inkscape:grid
     type="xygrid"
     id="grid4628" /></sodipodi:namedview>
<rect
   x="35"
   y="14"
   fill="none"
   width="585"
   height="71"
   id="rect3746" />

<rect
   x="5"
   y="9.175"
   fill="#FE4918"
   width="18"
   height="58.825"
   id="rect3770" /><g
   enable-background="new    "
   id="g3768"
   style="fill:#000000">
	
	
	
	
	
	
	<path
   d="m 129.19424,61.727552 c -1.537,1.096 -3.492,1.881 -5.868,2.357 -2.376,0.476 -4.812,0.714 -7.309,0.714 -3.023,0 -5.893,-0.468 -8.604,-1.404 -2.713,-0.936 -5.101,-2.447 -7.164,-4.535 -2.063996,-2.088 -3.707995,-4.8 -4.931995,-8.137 -1.225,-3.335 -1.836,-7.38 -1.836,-12.132 0,-4.943 0.684,-9.083 2.052,-12.42 1.368,-3.336 3.143994,-6.023 5.327995,-8.063 2.184,-2.04 4.619,-3.504 7.308,-4.393 2.688,-0.888 5.375,-1.332 8.064,-1.332 2.88,0 5.315,0.192 7.308,0.576 1.991,0.385 3.636,0.841 4.933,1.368 l -1.944,8.352 c -1.104,-0.527 -2.412,-0.911 -3.925,-1.151 -1.512,-0.24 -3.348,-0.36 -5.508,-0.36 -3.984,0 -7.188,1.42 -9.611,4.257 -2.425,2.839 -3.637,7.239 -3.637,13.203 0,2.598 0.289,4.967 0.864,7.106 0.576,2.142 1.452,3.97 2.628,5.483 1.176,1.516 2.64,2.694 4.393,3.536 1.752,0.842 3.779,1.262 6.084,1.262 2.16,0 3.983,-0.216 5.472,-0.647 1.487,-0.433 2.783,-0.983 3.888,-1.656 z"
   id="path3760"
   style="fill:#000000"
   inkscape:connector-curvature="0" />
	<path
   d="m 261.75043,53.819405 h -15.48 l -3.816,11.16 h -9.863 l 18.145,-50.76 h 7.271 l 18.145,50.76 h -10.369 z m -12.96,-7.92 h 10.8 l -3.744,-11.231 -1.512,-7.921 h -0.36 l -1.512,7.992 z"
   id="path3762"
   style="fill:#000000"
   inkscape:connector-curvature="0" />
	<path
   d="m 65.098,38.264 1.08,-10.008 H 65.745 L 62.649,36.319 51.921,55.111 H 48.752 L 37.449,36.247 34.281,28.256 h -0.36 l 1.44,9.936 V 64.4 H 26 V 14 h 9 l 13.465,23.04 2.376,5.761 h 0.288 l 2.16,-5.904 12.744,-22.896 h 8.928 v 50.4 H 65.097 V 38.264 Z"
   id="path3764"
   style="fill:#000000"
   inkscape:connector-curvature="0" />
	
<flowRoot
   xml:space="preserve"
   id="flowRoot3783"
   style="fill:black;fill-opacity:1;stroke:none;font-family:sans-serif;font-style:normal;font-weight:normal;font-size:40px;line-height:1.25;letter-spacing:0px;word-spacing:0px"><flowRegion
     id="flowRegion3785"><rect
       id="rect3787"
       width="34.673824"
       height="63.636665"
       x="387.9389"
       y="-14.639141" /></flowRegion><flowPara
     id="flowPara3789"></flowPara></flowRoot><path
   style="fill:#000000;stroke:#000000;stroke-width:0.91898835px;stroke-linecap:butt;stroke-linejoin:miter;stroke-opacity:1"
   d="m 79.91278,13.875114 h 11.095994 l -0.346752,50.256378 -10.402491,1e-6 z"
   id="path3791"
   inkscape:connector-curvature="0"
   sodipodi:nodetypes="ccccc" /><path
   style="fill:#000000;stroke:#000000;stroke-width:0.96826178px;stroke-linecap:butt;stroke-linejoin:miter;stroke-opacity:1"
   d="m 173.06372,14.663898 -10.42804,0.0015 c 5.2551,42.900539 -22.34027,52.673895 -19.56249,-0.189015 l -11.02496,0.189027 c -6.53971,60.455934 45.05185,73.401198 41.01549,-0.0015 z"
   id="path3793"
   inkscape:connector-curvature="0"
   sodipodi:nodetypes="cccccc" /><path
   style="fill:#000000;stroke:#000000;stroke-width:1px;stroke-linecap:butt;stroke-linejoin:miter;stroke-opacity:0"
   d="m 178.80374,64.86729 v -50.4 h 9 l 30.0248,37.430308 1.0082,-37.429308 h 8.928 v 50.4 h -9.864 l -30.816,-36.145 1.08,36.144 z"
   id="path3798"
   inkscape:connector-curvature="0"
   sodipodi:nodetypes="ccccccccccc" /><path
   style="fill:#000000;stroke:#000000;stroke-width:1px;stroke-linecap:butt;stroke-linejoin:miter;stroke-opacity:1"
   d="m 280.29985,64.646957 v -50.4 h 9 l 0.361,24.192 15.80078,-23.672641 9.43624,-0.189753 -13.17189,20.294738 12.8917,29.705262 -9.62334,-0.08778 -9.21279,-21.01385 -6.11998,8.527372 -7.2e-4,12.644656 z"
   id="path4605"
   inkscape:connector-curvature="0"
   sodipodi:nodetypes="ccccccccccccc" /><path
   style="fill:#000000;stroke:#000000;stroke-width:0.96826178px;stroke-linecap:butt;stroke-linejoin:miter;stroke-opacity:1"
   d="m 360.71685,14.35671 -10.42804,0.0015 c 5.2551,42.900539 -22.34027,52.673895 -19.56249,-0.189015 l -11.02496,0.189027 c -6.53971,60.455934 45.05185,73.401198 41.01549,-0.0015 z"
   id="path3793-2"
   inkscape:connector-curvature="0"
   sodipodi:nodetypes="cccccc" /><text
   xml:space="preserve"
   style="font-style:normal;font-weight:normal;font-size:70.03405762px;line-height:1.25;font-family:sans-serif;letter-spacing:0px;word-spacing:0px;fill:#000000;fill-opacity:1;stroke:none;stroke-width:1.75085115"
   x="363.02661"
   y="60.585487"
   id="text4626"
   transform="scale(1.012128,0.98801732)"><tspan
     sodipodi:role="line"
     id="tspan4624"
     x="363.02661"
     y="60.585487"
     style="stroke-width:1.75085115">S</tspan></text>
<path
   style="fill:none;stroke:#00d200;stroke-width:0.76029408px;stroke-linecap:butt;stroke-linejoin:miter;stroke-opacity:1"
   d="m 407.17765,20 h 5.15586 c 3.66087,-24.5518097 -35.65419,-13.9875308 -39.0138,-2.515033 -2.20119,7.516678 -1.0016,12.627589 3.52558,16.472076 7.84222,2.828859 10.58222,3.169055 20.53633,5.395708 7.40096,1.153879 10.47755,7.078621 4.9533,13.235162 -5.87472,3.47176 -16.938,1.748363 -22.33492,-4.806224 l -7.46113,-0.03173 C 369.018,56.182044 388.84357,68.225872 407.92842,55 413.74502,48.032717 414.45928,42.36599 408.1717,34.862133 398.81847,30.391727 394.35323,30.373233 385,30 380.37816,27.450523 381.12652,23.809307 382.07965,21.710105 392.37529,11.474877 405.32019,7.5813341 407.17765,20 Z"
   id="path4622"
   inkscape:connector-curvature="0"
   sodipodi:nodetypes="ccscccccccccc" /></g>
</svg>